REM DIRINDEX 1\2\4\8,1\2\4\9,1\2\4\10,1\2\5\11,1\2\5\12,1\2\5\13,1\2\5\14,1\2\5\15,1\3\6\16,1\3\6\17,1\3\6\18,1\3\7\19,1\3\7\20,1\3\7\21,1\3\7\22,1\3\7\23
REM DIRNAME "folder01","folder02","folder03","folder04","folder05","folder06","folder07","folder08","folder09","folder10","folder11","folder12","folder13","folder14","folder15","folder16","folder17","folder18","folder19","folder20","folder21","folder22","folder23"
TITLE ""
FILE "LR_black_phrase_E_B01.mp3" MP3
  TRACK 01 AUDIO
    TITLE "0:"
    INDEX 01 00:00:00
  TRACK 02 AUDIO
    TITLE "16:cjc171_08901"
    INDEX 01 00:00:16
  TRACK 03 AUDIO
    TITLE "0:"
    INDEX 01 00:01:33
  TRACK 04 AUDIO
    TITLE "17:cjc171_08902"
    INDEX 01 00:01:67
  TRACK 05 AUDIO
    TITLE "0:"
    INDEX 01 00:03:52
  TRACK 06 AUDIO
    TITLE "18:cjc171_08903"
    INDEX 01 00:04:30
  TRACK 07 AUDIO
    TITLE "0:"
    INDEX 01 00:06:15
  TRACK 08 AUDIO
    TITLE "16:cjc171_08904"
    INDEX 01 00:07:18
  TRACK 09 AUDIO
    TITLE "0:"
    INDEX 01 00:08:53
  TRACK 10 AUDIO
    TITLE "17:cjc171_08905"
    INDEX 01 00:09:07
  TRACK 11 AUDIO
    TITLE "0:"
    INDEX 01 00:11:24
  TRACK 12 AUDIO
    TITLE "18:cjc171_08906"
    INDEX 01 00:12:02
  TRACK 13 AUDIO
    TITLE "0:"
    INDEX 01 00:14:18
  TRACK 14 AUDIO
    TITLE "16:cjc171_08907"
    INDEX 01 00:15:22
  TRACK 15 AUDIO
    TITLE "0:"
    INDEX 01 00:16:39
  TRACK 16 AUDIO
    TITLE "17:cjc171_08908"
    INDEX 01 00:16:58
  TRACK 17 AUDIO
    TITLE "0:"
    INDEX 01 00:19:04
  TRACK 18 AUDIO
    TITLE "18:cjc171_08909"
    INDEX 01 00:19:51
  TRACK 19 AUDIO
    TITLE "0:"
    INDEX 01 00:21:71
  TRACK 20 AUDIO
    TITLE "16:cjc171_08910"
    INDEX 01 00:23:03
  TRACK 21 AUDIO
    TITLE "0:"
    INDEX 01 00:24:07
  TRACK 22 AUDIO
    TITLE "17:cjc171_08911"
    INDEX 01 00:24:34
  TRACK 23 AUDIO
    TITLE "0:"
    INDEX 01 00:26:59
  TRACK 24 AUDIO
    TITLE "18:cjc171_08912"
    INDEX 01 00:27:40
  TRACK 25 AUDIO
    TITLE "0:"
    INDEX 01 00:29:63
  TRACK 26 AUDIO
    TITLE "16:cjc171_08913"
    INDEX 01 00:30:70
  TRACK 27 AUDIO
    TITLE "0:"
    INDEX 01 00:32:16
  TRACK 28 AUDIO
    TITLE "17:cjc171_08914"
    INDEX 01 00:32:48
  TRACK 29 AUDIO
    TITLE "0:"
    INDEX 01 00:34:58
  TRACK 30 AUDIO
    TITLE "18:cjc171_08915"
    INDEX 01 00:35:40
  TRACK 31 AUDIO
    TITLE "0:"
    INDEX 01 00:37:53
  TRACK 32 AUDIO
    TITLE "16:cjc171_08916"
    INDEX 01 00:38:58
  TRACK 33 AUDIO
    TITLE "0:"
    INDEX 01 00:39:75
  TRACK 34 AUDIO
    TITLE "17:cjc171_08917"
    INDEX 01 00:40:29
  TRACK 35 AUDIO
    TITLE "0:"
    INDEX 01 00:43:08
  TRACK 36 AUDIO
    TITLE "18:cjc171_08918"
    INDEX 01 00:43:57
  TRACK 37 AUDIO
    TITLE "0:"
    INDEX 01 00:46:36
  TRACK 38 AUDIO
    TITLE "16:cjc171_08919"
    INDEX 01 00:47:35
  TRACK 39 AUDIO
    TITLE "0:"
    INDEX 01 00:48:64
  TRACK 40 AUDIO
    TITLE "17:cjc171_08920"
    INDEX 01 00:49:19
  TRACK 41 AUDIO
    TITLE "0:"
    INDEX 01 00:51:08
  TRACK 42 AUDIO
    TITLE "18:cjc171_08921"
    INDEX 01 00:51:63
  TRACK 43 AUDIO
    TITLE "0:"
    INDEX 01 00:53:50
  TRACK 44 AUDIO
    TITLE "16:cjc171_08922"
    INDEX 01 00:54:55
  TRACK 45 AUDIO
    TITLE "0:"
    INDEX 01 00:56:13
  TRACK 46 AUDIO
    TITLE "17:cjc171_08923"
    INDEX 01 00:56:38
  TRACK 47 AUDIO
    TITLE "0:"
    INDEX 01 00:59:25
  TRACK 48 AUDIO
    TITLE "18:cjc171_08924"
    INDEX 01 01:00:05
  TRACK 49 AUDIO
    TITLE "0:"
    INDEX 01 01:02:64
  TRACK 50 AUDIO
    TITLE "16:cjc171_08925"
    INDEX 01 01:04:01
  TRACK 51 AUDIO
    TITLE "0:"
    INDEX 01 01:05:14
  TRACK 52 AUDIO
    TITLE "17:cjc171_08926"
    INDEX 01 01:05:45
  TRACK 53 AUDIO
    TITLE "0:"
    INDEX 01 01:07:58
  TRACK 54 AUDIO
    TITLE "18:cjc171_08927"
    INDEX 01 01:08:34
  TRACK 55 AUDIO
    TITLE "0:"
    INDEX 01 01:10:46
  TRACK 56 AUDIO
    TITLE "16:cjc171_08928"
    INDEX 01 01:11:52
  TRACK 57 AUDIO
    TITLE "0:"
    INDEX 01 01:13:07
  TRACK 58 AUDIO
    TITLE "17:cjc171_08929"
    INDEX 01 01:13:31
  TRACK 59 AUDIO
    TITLE "0:"
    INDEX 01 01:15:41
  TRACK 60 AUDIO
    TITLE "18:cjc171_08930"
    INDEX 01 01:16:15
  TRACK 61 AUDIO
    TITLE "0:"
    INDEX 01 01:18:26
  TRACK 62 AUDIO
    TITLE "16:cjc171_08931"
    INDEX 01 01:19:24
  TRACK 63 AUDIO
    TITLE "0:"
    INDEX 01 01:20:45
  TRACK 64 AUDIO
    TITLE "17:cjc171_08932"
    INDEX 01 01:20:74
  TRACK 65 AUDIO
    TITLE "0:"
    INDEX 01 01:23:04
  TRACK 66 AUDIO
    TITLE "18:cjc171_08933"
    INDEX 01 01:23:57
  TRACK 67 AUDIO
    TITLE "0:"
    INDEX 01 01:25:59
  TRACK 68 AUDIO
    TITLE "16:cjc171_08934"
    INDEX 01 01:26:65
  TRACK 69 AUDIO
    TITLE "0:"
    INDEX 01 01:28:11
  TRACK 70 AUDIO
    TITLE "17:cjc171_08935"
    INDEX 01 01:28:34
  TRACK 71 AUDIO
    TITLE "0:"
    INDEX 01 01:30:61
  TRACK 72 AUDIO
    TITLE "18:cjc171_08936"
    INDEX 01 01:31:37
  TRACK 73 AUDIO
    TITLE "0:"
    INDEX 01 01:33:65
  TRACK 74 AUDIO
    TITLE "16:cjc171_08937"
    INDEX 01 01:34:66
  TRACK 75 AUDIO
    TITLE "0:"
    INDEX 01 01:36:14
  TRACK 76 AUDIO
    TITLE "17:cjc171_08938"
    INDEX 01 01:36:42
  TRACK 77 AUDIO
    TITLE "0:"
    INDEX 01 01:39:03
  TRACK 78 AUDIO
    TITLE "18:cjc171_08939"
    INDEX 01 01:39:58
  TRACK 79 AUDIO
    TITLE "0:"
    INDEX 01 01:42:17
  TRACK 80 AUDIO
    TITLE "16:cjc171_08940"
    INDEX 01 01:43:22
  TRACK 81 AUDIO
    TITLE "0:"
    INDEX 01 01:44:37
  TRACK 82 AUDIO
    TITLE "17:cjc171_08941"
    INDEX 01 01:44:65
  TRACK 83 AUDIO
    TITLE "0:"
    INDEX 01 01:47:04
  TRACK 84 AUDIO
    TITLE "18:cjc171_08942"
    INDEX 01 01:47:57
  TRACK 85 AUDIO
    TITLE "0:"
    INDEX 01 01:49:70
  TRACK 86 AUDIO
    TITLE "16:cjc171_08943"
    INDEX 01 01:50:75
  TRACK 87 AUDIO
    TITLE "0:"
    INDEX 01 01:52:23
  TRACK 88 AUDIO
    TITLE "17:cjc171_08944"
    INDEX 01 01:52:52
  TRACK 89 AUDIO
    TITLE "0:"
    INDEX 01 01:55:72
  TRACK 90 AUDIO
    TITLE "18:cjc171_08945"
    INDEX 01 01:56:52
  TRACK 91 AUDIO
    TITLE "0:"
    INDEX 01 01:59:72
  TRACK 92 AUDIO
    TITLE "16:cjc171_08946"
    INDEX 01 02:01:02
  TRACK 93 AUDIO
    TITLE "0:"
    INDEX 01 02:02:25
  TRACK 94 AUDIO
    TITLE "17:cjc171_08947"
    INDEX 01 02:02:45
  TRACK 95 AUDIO
    TITLE "0:"
    INDEX 01 02:04:67
  TRACK 96 AUDIO
    TITLE "18:cjc171_08948"
    INDEX 01 02:05:49
  TRACK 97 AUDIO
    TITLE "0:"
    INDEX 01 02:08:06
  TRACK 98 AUDIO
    TITLE "16:cjc171_08949"
    INDEX 01 02:09:12
  TRACK 99 AUDIO
    TITLE "0:"
    INDEX 01 02:10:27
  TRACK 100 AUDIO
    TITLE "17:cjc171_08950"
    INDEX 01 02:10:44
  TRACK 101 AUDIO
    TITLE "0:"
    INDEX 01 02:12:39
  TRACK 102 AUDIO
    TITLE "18:cjc171_08951"
    INDEX 01 02:13:17
  TRACK 103 AUDIO
    TITLE "0:"
    INDEX 01 02:15:20
  TRACK 104 AUDIO
    TITLE "16:cjc171_08952"
    INDEX 01 02:16:20
  TRACK 105 AUDIO
    TITLE "0:"
    INDEX 01 02:17:17
  TRACK 106 AUDIO
    TITLE "17:cjc171_08953"
    INDEX 01 02:17:39
  TRACK 107 AUDIO
    TITLE "0:"
    INDEX 01 02:20:72
  TRACK 108 AUDIO
    TITLE "18:cjc171_08954"
    INDEX 01 02:21:44
  TRACK 109 AUDIO
    TITLE "0:"
    INDEX 01 02:25:03
  TRACK 110 AUDIO
    TITLE "16:cjc171_08955"
    INDEX 01 02:26:06
  TRACK 111 AUDIO
    TITLE "0:"
    INDEX 01 02:27:29
  TRACK 112 AUDIO
    TITLE "17:cjc171_08956"
    INDEX 01 02:27:61
  TRACK 113 AUDIO
    TITLE "0:"
    INDEX 01 02:29:67
  TRACK 114 AUDIO
    TITLE "18:cjc171_08957"
    INDEX 01 02:30:47
  TRACK 115 AUDIO
    TITLE "0:"
    INDEX 01 02:32:56
  TRACK 116 AUDIO
    TITLE "16:cjc171_08958"
    INDEX 01 02:33:59
  TRACK 117 AUDIO
    TITLE "0:"
    INDEX 01 02:35:03
  TRACK 118 AUDIO
    TITLE "17:cjc171_08959"
    INDEX 01 02:35:33
  TRACK 119 AUDIO
    TITLE "0:"
    INDEX 01 02:37:49
  TRACK 120 AUDIO
    TITLE "18:cjc171_08960"
    INDEX 01 02:38:27
  TRACK 121 AUDIO
    TITLE "0:"
    INDEX 01 02:40:44
  TRACK 122 AUDIO
    TITLE "16:cjc171_08961"
    INDEX 01 02:41:47
  TRACK 123 AUDIO
    TITLE "0:"
    INDEX 01 02:42:66
  TRACK 124 AUDIO
    TITLE "17:cjc171_08962"
    INDEX 01 02:43:18
  TRACK 125 AUDIO
    TITLE "0:"
    INDEX 01 02:45:43
  TRACK 126 AUDIO
    TITLE "18:cjc171_08963"
    INDEX 01 02:46:21
  TRACK 127 AUDIO
    TITLE "0:"
    INDEX 01 02:48:45
  TRACK 128 AUDIO
    TITLE "16:cjc171_08964"
    INDEX 01 02:49:50
  TRACK 129 AUDIO
    TITLE "0:"
    INDEX 01 02:50:69
  TRACK 130 AUDIO
    TITLE "17:cjc171_08965"
    INDEX 01 02:51:28
  TRACK 131 AUDIO
    TITLE "0:"
    INDEX 01 02:53:23
  TRACK 132 AUDIO
    TITLE "18:cjc171_08966"
    INDEX 01 02:54:07
  TRACK 133 AUDIO
    TITLE "0:"
    INDEX 01 02:55:75
  TRACK 134 AUDIO
    TITLE "16:cjc171_08967"
    INDEX 01 02:57:05
  TRACK 135 AUDIO
    TITLE "0:"
    INDEX 01 02:58:28
  TRACK 136 AUDIO
    TITLE "17:cjc171_08968"
    INDEX 01 02:58:57
  TRACK 137 AUDIO
    TITLE "0:"
    INDEX 01 03:00:64
  TRACK 138 AUDIO
    TITLE "18:cjc171_08969"
    INDEX 01 03:01:44
  TRACK 139 AUDIO
    TITLE "0:"
    INDEX 01 03:03:43
  TRACK 140 AUDIO
    TITLE "16:cjc171_08970"
    INDEX 01 03:04:52
  TRACK 141 AUDIO
    TITLE "0:"
    INDEX 01 03:06:06
  TRACK 142 AUDIO
    TITLE "17:cjc171_08971"
    INDEX 01 03:06:37
  TRACK 143 AUDIO
    TITLE "0:"
    INDEX 01 03:08:69
  TRACK 144 AUDIO
    TITLE "18:cjc171_08972"
    INDEX 01 03:09:49
  TRACK 145 AUDIO
    TITLE "0:"
    INDEX 01 03:12:08
  TRACK 146 AUDIO
    TITLE "16:cjc171_08973"
    INDEX 01 03:13:12
  TRACK 147 AUDIO
    TITLE "0:"
    INDEX 01 03:14:33
  TRACK 148 AUDIO
    TITLE "17:cjc171_08974"
    INDEX 01 03:14:62
  TRACK 149 AUDIO
    TITLE "0:"
    INDEX 01 03:16:69
  TRACK 150 AUDIO
    TITLE "18:cjc171_08975"
    INDEX 01 03:17:47
  TRACK 151 AUDIO
    TITLE "0:"
    INDEX 01 03:19:53
  TRACK 152 AUDIO
    TITLE "16:cjc171_08976"
    INDEX 01 03:20:59
  TRACK 153 AUDIO
    TITLE "0:"
    INDEX 01 03:22:03
  TRACK 154 AUDIO
    TITLE "17:cjc171_08977"
    INDEX 01 03:22:34
  TRACK 155 AUDIO
    TITLE "0:"
    INDEX 01 03:24:74
  TRACK 156 AUDIO
    TITLE "18:cjc171_08978"
    INDEX 01 03:25:52
  TRACK 157 AUDIO
    TITLE "0:"
    INDEX 01 03:28:15
  TRACK 158 AUDIO
    TITLE "16:cjc171_08979"
    INDEX 01 03:29:21
  TRACK 159 AUDIO
    TITLE "0:"
    INDEX 01 03:30:36
  TRACK 160 AUDIO
    TITLE "17:cjc171_08980"
    INDEX 01 03:30:65
  TRACK 161 AUDIO
    TITLE "0:"
    INDEX 01 03:32:54
  TRACK 162 AUDIO
    TITLE "18:cjc171_08981"
    INDEX 01 03:33:34
  TRACK 163 AUDIO
    TITLE "0:"
    INDEX 01 03:35:23
  TRACK 164 AUDIO
    TITLE "16:cjc171_08982"
    INDEX 01 03:36:28
  TRACK 165 AUDIO
    TITLE "0:"
    INDEX 01 03:37:61
  TRACK 166 AUDIO
    TITLE "17:cjc171_08983"
    INDEX 01 03:38:16
  TRACK 167 AUDIO
    TITLE "0:"
    INDEX 01 03:41:08
  TRACK 168 AUDIO
    TITLE "18:cjc171_08984"
    INDEX 01 03:41:63
  TRACK 169 AUDIO
    TITLE "0:"
    INDEX 01 03:44:55
  TRACK 170 AUDIO
    TITLE "16:cjc171_08985"
    INDEX 01 03:45:59
  TRACK 171 AUDIO
    TITLE "0:"
    INDEX 01 03:47:11
  TRACK 172 AUDIO
    TITLE "17:cjc171_08986"
    INDEX 01 03:47:40
  TRACK 173 AUDIO
    TITLE "0:"
    INDEX 01 03:50:05
  TRACK 174 AUDIO
    TITLE "18:cjc171_08987"
    INDEX 01 03:50:60
  TRACK 175 AUDIO
    TITLE "0:"
    INDEX 01 03:53:25
  TRACK 176 AUDIO
    TITLE "16:cjc171_08988"
    INDEX 01 03:54:30
  TRACK 177 AUDIO
    TITLE "0:"
    INDEX 01 03:55:45
  TRACK 178 AUDIO
    TITLE "17:cjc171_08989"
    INDEX 01 03:55:75
  TRACK 179 AUDIO
    TITLE "0:"
    INDEX 01 03:58:28
  TRACK 180 AUDIO
    TITLE "18:cjc171_08990"
    INDEX 01 03:59:10
  TRACK 181 AUDIO
    TITLE "0:"
    INDEX 01 04:01:38
